<?xml version="1.0" encoding="UTF-8" standalone="no"?>
<!-- Created with Inkscape (http://www.inkscape.org/) -->
<svg
   xmlns:dc="http://purl.org/dc/elements/1.1/"
   xmlns:cc="http://creativecommons.org/ns#"
   xmlns:rdf="http://www.w3.org/1999/02/22-rdf-syntax-ns#"
   xmlns:svg="http://www.w3.org/2000/svg"
   xmlns="http://www.w3.org/2000/svg"
   xmlns:xlink="http://www.w3.org/1999/xlink"
   xmlns:sodipodi="http://sodipodi.sourceforge.net/DTD/sodipodi-0.dtd"
   xmlns:inkscape="http://www.inkscape.org/namespaces/inkscape"
   width="16px"
   height="16px"
   id="svg2383"
   sodipodi:version="0.32"
   inkscape:version="0.46"
   inkscape:export-filename="/home/knegil/Desktop/moon2.png"
   inkscape:export-xdpi="90"
   inkscape:export-ydpi="90"
   sodipodi:docname="moon.svg"
   inkscape:output_extension="org.inkscape.output.svg.inkscape">
  <defs
     id="defs2385">
    <linearGradient
       id="linearGradient3203">
      <stop
         id="stop3205"
         offset="0"
         style="stop-color:#efd4c3;stop-opacity:1;" />
      <stop
         id="stop3207"
         offset="1"
         style="stop-color:#8b7e4b;stop-opacity:1;" />
    </linearGradient>
    <linearGradient
       id="linearGradient3175">
      <stop
         style="stop-color:#e9e9af;stop-opacity:1;"
         offset="0"
         id="stop3177" />
      <stop
         style="stop-color:#b3a571;stop-opacity:1;"
         offset="1"
         id="stop3179" />
    </linearGradient>
    <inkscape:perspective
       sodipodi:type="inkscape:persp3d"
       inkscape:vp_x="0 : 8 : 1"
       inkscape:vp_y="0 : 1000 : 0"
       inkscape:vp_z="16 : 8 : 1"
       inkscape:persp3d-origin="8 : 5.3333333 : 1"
       id="perspective2391" />
    <linearGradient
       inkscape:collect="always"
       xlink:href="#linearGradient3203"
       id="linearGradient3256"
       gradientUnits="userSpaceOnUse"
       x1="4.4711633"
       y1="14.434529"
       x2="15.620915"
       y2="7.744678"
       gradientTransform="matrix(0.8968809,0,0,0.8968809,0.9898992,5.3945751e-2)" />
  </defs>
  <sodipodi:namedview
     id="base"
     pagecolor="#ffffff"
     bordercolor="#666666"
     borderopacity="1.0"
     inkscape:pageopacity="0.0"
     inkscape:pageshadow="2"
     inkscape:zoom="22.197802"
     inkscape:cx="9.6734839"
     inkscape:cy="8"
     inkscape:current-layer="layer1"
     showgrid="true"
     inkscape:grid-bbox="true"
     inkscape:document-units="px"
     gridtolerance="10000"
     inkscape:window-width="820"
     inkscape:window-height="719"
     inkscape:window-x="456"
     inkscape:window-y="48">
    <inkscape:grid
       type="xygrid"
       id="grid3163"
       visible="true"
       enabled="true" />
  </sodipodi:namedview>
  <metadata
     id="metadata2388">
    <rdf:RDF>
      <cc:Work
         rdf:about="">
        <dc:format>image/svg+xml</dc:format>
        <dc:type
           rdf:resource="http://purl.org/dc/dcmitype/StillImage" />
      </cc:Work>
    </rdf:RDF>
  </metadata>
  <g
     id="layer1"
     inkscape:label="Layer 1"
     inkscape:groupmode="layer">
    <path
       style="fill:#483e37;fill-rule:evenodd;stroke:none;stroke-width:0.96020454;stroke-linecap:butt;stroke-linejoin:miter;stroke-miterlimit:4;stroke-dasharray:none;stroke-opacity:1"
       d="M 8 0.96875 C 5.8422845 0.96875 3.925761 1.9923796 2.65625 3.5625 C 5.6578221 3.8093887 8 5.6834266 8 8 C 7.9999996 10.316573 5.6578221 12.190611 2.65625 12.4375 C 3.9259274 13.99652 5.8511468 15 8 15 C 11.820183 15 14.90625 11.871679 14.90625 8 C 14.90625 4.1283205 11.820183 0.96875001 8 0.96875 z "
       id="path3169" />
    <path
       style="fill:url(#linearGradient3256);fill-opacity:1;fill-rule:evenodd;stroke:none;stroke-width:0.96020454000000000;stroke-linecap:butt;stroke-linejoin:miter;stroke-miterlimit:4;stroke-dasharray:none;stroke-opacity:1"
       d="M 8 2 C 6.6868063 2 5.4883426 2.4397499 4.5 3.15625 C 7.0874518 3.7114441 9 5.6712501 9 8 C 9.0000002 10.32875 7.0874518 12.288556 4.5 12.84375 C 5.4883426 13.56025 6.6868064 14 8 14 C 11.312 14 14 11.312 14 8 C 14 4.6879999 11.312 2.0000001 8 2 z "
       id="path3173" />
    <path
       style="fill:#e9ddaf;fill-opacity:1;fill-rule:evenodd;stroke:none;stroke-width:0.96020454000000000;stroke-linecap:butt;stroke-linejoin:miter;stroke-miterlimit:4;stroke-dasharray:none;stroke-opacity:1"
       d="M 8 3 C 7.47215 3 6.9777785 3.0981689 6.5 3.25 C 8.5204097 3.8920572 10 5.76785 10 8 C 9.9999998 10.23215 8.5204098 12.107943 6.5 12.75 C 6.9777785 12.901831 7.47215 13 8 13 C 10.76 13 13 10.76 13 8 C 13 5.2400001 10.76 3.0000001 8 3 z "
       id="path3199" />
    <path
       style="fill:none;fill-rule:evenodd;stroke:#ab9a91;stroke-width:1px;stroke-linecap:butt;stroke-linejoin:miter;stroke-opacity:1;opacity:0.69421487999999998"
       d="M 10.28028,7.3865807 C 9.4228586,9.4517267 13,9 13,9"
       id="path3183" />
    <path
       id="path3185"
       d="M 8,5 C 8.798882,7.0884897 11.083661,4.2992638 11.083661,4.2992638"
       style="opacity:0.25206612;fill:none;fill-rule:evenodd;stroke:#f5f5f5;stroke-width:1px;stroke-linecap:butt;stroke-linejoin:miter;stroke-opacity:1" />
    <path
       style="fill:none;fill-rule:evenodd;stroke:#b5a79e;stroke-width:0.83043544999999985px;stroke-linecap:butt;stroke-linejoin:miter;stroke-opacity:1;opacity:0.83057851000000005"
       d="M 10.167824,10.854943 C 9.9159795,13.332317 12,12 12,12"
       id="path3187" />
  </g>
</svg>
